<svg xmlns="http://www.w3.org/2000/svg" xmlns:xlink="http://www.w3.org/1999/xlink" width="1240" height="776.43"><rect width="1240" height="776.43" rx="5" ry="5" class="a"/><svg y="0%" x="0%"><circle cx="20" cy="20" r="6" fill="#ff5f58"/><circle cx="40" cy="20" r="6" fill="#ffbd2e"/><circle cx="60" cy="20" r="6" fill="#18c132"/></svg><svg height="716.43" viewBox="0 0 120 71.643" width="1200" x="15" xmlns="http://www.w3.org/2000/svg" xmlns:xlink="http://www.w3.org/1999/xlink" y="50"><style>@keyframes k{0%{transform:translateX(0)}.11%{transform:translateX(-120px)}13.38%{transform:translateX(-240px)}15.31%{transform:translateX(-360px)}16.8%{transform:translateX(-480px)}19.55%{transform:translateX(-600px)}21.51%{transform:translateX(-720px)}22.22%{transform:translateX(-840px)}23.38%{transform:translateX(-960px)}24.22%{transform:translateX(-1080px)}25.55%{transform:translateX(-1200px)}27.29%{transform:translateX(-1320px)}31.23%{transform:translateX(-1680px)}46.89%{transform:translateX(-1800px)}47.6%{transform:translateX(-1920px)}48.51%{transform:translateX(-2040px)}48.86%{transform:translateX(-2160px)}50.41%{transform:translateX(-2280px)}50.88%{transform:translateX(-2400px)}52.12%{transform:translateX(-2520px)}52.58%{transform:translateX(-2640px)}59.34%{transform:translateX(-2760px)}63.6%{transform:translateX(-2880px)}65.43%{transform:translateX(-3000px)}72.87%{transform:translateX(-3120px)}74.05%{transform:translateX(-3240px)}76.27%{transform:translateX(-3360px)}77.69%{transform:translateX(-3480px)}81.4%{transform:translateX(-3600px)}84.39%{transform:translateX(-3720px)}84.6%{transform:translateX(-3960px)}87.4%{transform:translateX(-4080px)}87.59%{transform:translateX(-4320px)}87.68%{transform:translateX(-4440px)}87.69%{transform:translateX(-4560px)}87.71%{transform:translateX(-4920px)}87.91%{transform:translateX(-5040px)}to{transform:translateX(-5160px)}}.a{fill:#282d35}.f,.g,.h{white-space:pre}.f{fill:#a8cc8c;font-weight:700}.g,.h{fill:#b9c0cb}.h{fill:#71bef2;font-weight:700}</style><g font-family="Monaco,Consolas,Menlo,'Bitstream Vera Sans Mono','Powerline Symbols',monospace" font-size="1.67"><defs><symbol id="14"><text y="1.67" class="g">ktest/target/rocktest-1.0.6.jar</text><text x="32.064" y="1.67" class="g">started</text><text x="40.08" y="1.67" class="g">by</text><text x="43.086" y="1.67" class="g">ben</text><text x="47.094" y="1.67" class="g">in</text><text x="50.1" y="1.67" class="g">/home/ben/src/rock/rocktest/scen-test)</text></symbol><symbol id="1"><text y="1.67" class="f">ben@bouzin</text><text x="10.02" y="1.67" class="g">:</text><text x="11.022" y="1.67" class="h">~/src/rock/rocktest/scen-test</text><text x="40.08" y="1.67" class="g">$</text></symbol><symbol id="3"><text y="1.67" class="f">ben@bouzin</text><text x="10.02" y="1.67" class="g">:</text><text x="11.022" y="1.67" class="h">~/src/rock/rocktest/scen-test</text><text x="40.08" y="1.67" class="g">$</text><text x="42.084" y="1.67" class="g">cat</text><text x="46.092" y="1.67" class="g">hello.yaml</text></symbol><symbol id="4"><text y="1.67" class="g">-</text><text x="2.004" y="1.67" class="g">step:</text><text x="8.016" y="1.67" class="g">display</text><text x="16.032" y="1.67" class="g">Hello</text><text x="22.044" y="1.67" class="g">RockTest</text><text x="31.062" y="1.67" class="g">!</text></symbol><symbol id="5"><text y="1.67" class="f">ben@bouzin</text><text x="10.02" y="1.67" class="g">:</text><text x="11.022" y="1.67" class="h">~/src/rock/rocktest/scen-test</text><text x="40.08" y="1.67" class="g">$</text><text x="42.084" y="1.67" class="g">rocktest</text></symbol><symbol id="6"><text y="1.67" class="f">ben@bouzin</text><text x="10.02" y="1.67" class="g">:</text><text x="11.022" y="1.67" class="h">~/src/rock/rocktest/scen-test</text><text x="40.08" y="1.67" class="g">$</text><text x="42.084" y="1.67" class="g">rocktest</text><text x="51.102" y="1.67" class="g">hello.yaml</text></symbol><symbol id="7"><text y="1.67" class="g">________</text><text x="23.046" y="1.67" class="g">______</text><text x="31.062" y="1.67" class="g">________</text><text x="53.106" y="1.67" class="g">_____</text></symbol><symbol id="8"><text y="1.67" class="g">___</text><text x="5.01" y="1.67" class="g">__</text><text x="8.016" y="1.67" class="g">\______</text><text x="16.032" y="1.67" class="g">__________</text><text x="28.056" y="1.67" class="g">/_____</text><text x="36.072" y="1.67" class="g">__/_____</text><text x="45.09" y="1.67" class="g">__________</text><text x="57.114" y="1.67" class="g">/_</text></symbol><symbol id="9"><text y="1.67" class="g">__</text><text x="4.008" y="1.67" class="g">/_/</text><text x="8.016" y="1.67" class="g">/_</text><text x="12.024" y="1.67" class="g">__</text><text x="15.03" y="1.67" class="g">\_</text><text x="19.038" y="1.67" class="g">___/__</text><text x="27.054" y="1.67" class="g">//_/__</text><text x="35.07" y="1.67" class="g">/</text><text x="39.078" y="1.67" class="g">_</text><text x="42.084" y="1.67" class="g">_</text><text x="44.088" y="1.67" class="g">\__</text><text x="49.098" y="1.67" class="g">___/_</text><text x="56.112" y="1.67" class="g">__/</text></symbol><symbol id="10"><text y="1.67" class="g">_</text><text x="3.006" y="1.67" class="g">_,</text><text x="6.012" y="1.67" class="g">_/</text><text x="9.018" y="1.67" class="g">/</text><text x="11.022" y="1.67" class="g">/_/</text><text x="15.03" y="1.67" class="g">//</text><text x="18.036" y="1.67" class="g">/__</text><text x="23.046" y="1.67" class="g">_</text><text x="26.052" y="1.67" class="g">,&lt;</text><text x="31.062" y="1.67" class="g">_</text><text x="34.068" y="1.67" class="g">/</text><text x="39.078" y="1.67" class="g">/</text><text x="42.084" y="1.67" class="g">__/_(__</text><text x="51.102" y="1.67" class="g">)</text><text x="53.106" y="1.67" class="g">/</text><text x="55.11" y="1.67" class="g">/_</text></symbol><symbol id="11"><text y="1.67" class="g">/_/</text><text x="4.008" y="1.67" class="g">|_|</text><text x="9.018" y="1.67" class="g">\____/</text><text x="16.032" y="1.67" class="g">\___/</text><text x="23.046" y="1.67" class="g">/_/|_|</text><text x="31.062" y="1.67" class="g">/_/</text><text x="39.078" y="1.67" class="g">\___/</text><text x="45.09" y="1.67" class="g">/____/</text><text x="53.106" y="1.67" class="g">\__/</text></symbol><symbol id="12"><text x="1.002" y="1.67" class="g">Test</text><text x="6.012" y="1.67" class="g">automation</text><text x="17.034" y="1.67" class="g">that</text><text x="22.044" y="1.67" class="g">rocks</text><text x="28.056" y="1.67" class="g">!</text><text x="37.074" y="1.67" class="g">(v1.0.6)</text></symbol><symbol id="13"><text y="1.67" class="g">21/03/2021</text><text x="11.022" y="1.67" class="g">23:40:02.162</text><text x="24.048" y="1.67" class="g">[INFO</text><text x="30.06" y="1.67" class="g">]</text><text x="32.064" y="1.67" class="g">-</text><text x="35.07" y="1.67" class="g">Starting</text><text x="44.088" y="1.67" class="g">RocktestApplication</text><text x="64.128" y="1.67" class="g">v1.0.6</text><text x="71.142" y="1.67" class="g">on</text><text x="74.148" y="1.67" class="g">bouzin</text><text x="81.162" y="1.67" class="g">with</text><text x="86.172" y="1.67" class="g">PID</text><text x="90.18" y="1.67" class="g">117393</text><text x="97.194" y="1.67" class="g">(/home/ben/src/rock/roc</text></symbol><symbol id="2"><text y="1.67" class="f">ben@bouzin</text><text x="10.02" y="1.67" class="g">:</text><text x="11.022" y="1.67" class="h">~/src/rock/rocktest/scen-test</text><text x="40.08" y="1.67" class="g">$</text><text x="42.084" y="1.67" class="g">cat</text></symbol><symbol id="15"><text y="1.67" class="g">21/03/2021</text><text x="11.022" y="1.67" class="g">23:40:02.164</text><text x="24.048" y="1.67" class="g">[INFO</text><text x="30.06" y="1.67" class="g">]</text><text x="32.064" y="1.67" class="g">-</text><text x="35.07" y="1.67" class="g">No</text><text x="38.076" y="1.67" class="g">active</text><text x="45.09" y="1.67" class="g">profile</text><text x="53.106" y="1.67" class="g">set,</text><text x="58.116" y="1.67" class="g">falling</text><text x="66.132" y="1.67" class="g">back</text><text x="71.142" y="1.67" class="g">to</text><text x="74.148" y="1.67" class="g">default</text><text x="82.164" y="1.67" class="g">profiles:</text><text x="92.184" y="1.67" class="g">default</text></symbol><symbol id="16"><text y="1.67" class="g">21/03/2021</text><text x="11.022" y="1.67" class="g">23:40:02.648</text><text x="24.048" y="1.67" class="g">[INFO</text><text x="30.06" y="1.67" class="g">]</text><text x="32.064" y="1.67" class="g">-</text><text x="35.07" y="1.67" class="g">Started</text><text x="43.086" y="1.67" class="g">RocktestApplication</text><text x="63.126" y="1.67" class="g">in</text><text x="66.132" y="1.67" class="g">0.704</text><text x="72.144" y="1.67" class="g">seconds</text><text x="80.16" y="1.67" class="g">(JVM</text><text x="85.17" y="1.67" class="g">running</text><text x="93.186" y="1.67" class="g">for</text><text x="97.194" y="1.67" class="g">1.028)</text></symbol><symbol id="17"><text y="1.67" class="g">21/03/2021</text><text x="11.022" y="1.67" class="g">23:40:02.680</text><text x="24.048" y="1.67" class="g">[INFO</text><text x="30.06" y="1.67" class="g">]</text><text x="32.064" y="1.67" class="g">-</text><text x="35.07" y="1.67" class="g">Set</text><text x="39.078" y="1.67" class="g">variable</text><text x="48.096" y="1.67" class="g">module</text><text x="55.11" y="1.67" class="g">=</text><text x="57.114" y="1.67" class="g">hello</text></symbol><symbol id="18"><text y="1.67" class="g">21/03/2021</text><text x="11.022" y="1.67" class="g">23:40:02.680</text><text x="24.048" y="1.67" class="g">[INFO</text><text x="30.06" y="1.67" class="g">]</text><text x="32.064" y="1.67" class="g">-</text><text x="35.07" y="1.67" class="g">Load</text><text x="40.08" y="1.67" class="g">scenario.</text><text x="50.1" y="1.67" class="g">name=hello.yaml,</text><text x="67.134" y="1.67" class="g">dir=.</text></symbol><symbol id="19"><text y="1.67" class="g">21/03/2021</text><text x="11.022" y="1.67" class="g">23:40:02.696</text><text x="24.048" y="1.67" class="g">[INFO</text><text x="30.06" y="1.67" class="g">]</text><text x="32.064" y="1.67" class="g">-</text><text x="35.07" y="1.67" class="g">Set</text><text x="39.078" y="1.67" class="g">variable</text><text x="48.096" y="1.67" class="g">module</text><text x="55.11" y="1.67" class="g">=</text><text x="57.114" y="1.67" class="g">hello</text></symbol><symbol id="20"><text y="1.67" class="g">----------------------------------------</text></symbol><symbol id="21"><text y="1.67" class="g">21/03/2021</text><text x="11.022" y="1.67" class="g">23:40:02.698</text><text x="24.048" y="1.67" class="g">[INFO</text><text x="30.06" y="1.67" class="g">]</text><text x="32.064" y="1.67" class="g">-</text><text x="34.068" y="1.67" class="g">[hello]</text><text x="42.084" y="1.67" class="g">Step#1</text><text x="49.098" y="1.67" class="g">display,Hello</text><text x="63.126" y="1.67" class="g">RockTest</text><text x="72.144" y="1.67" class="g">!</text></symbol><symbol id="22"><text y="1.67" class="g">21/03/2021</text><text x="11.022" y="1.67" class="g">23:40:02.702</text><text x="24.048" y="1.67" class="g">[INFO</text><text x="30.06" y="1.67" class="g">]</text><text x="32.064" y="1.67" class="g">-</text><text x="34.068" y="1.67" class="g">[hello]</text><text x="42.084" y="1.67" class="g">Step#1</text><text x="49.098" y="1.67" class="g">Hello</text><text x="55.11" y="1.67" class="g">RockTest</text><text x="64.128" y="1.67" class="g">!</text></symbol><symbol id="23"><text y="1.67" class="g">========================================</text></symbol><symbol id="24"><text y="1.67" class="g">=</text><text x="6.012" y="1.67" class="g">Scenario</text><text x="15.03" y="1.67" class="g">Success</text><text x="23.046" y="1.67" class="g">!</text><text x="25.05" y="1.67" class="g">It</text><text x="28.056" y="1.67" class="g">Rocks</text><text x="39.078" y="1.67" class="g">=</text></symbol><symbol id="25"><text y="1.67" class="g">21/03/2021</text><text x="11.022" y="1.67" class="g">23:40:02.702</text><text x="24.048" y="1.67" class="g">[INFO</text><text x="30.06" y="1.67" class="g">]</text><text x="32.064" y="1.67" class="g">-</text><text x="35.07" y="1.67" class="g">Scenario</text><text x="44.088" y="1.67" class="g">SUCCESS</text></symbol><symbol id="a"><path fill="transparent" d="M0 0h120v33H0z"/></symbol><symbol id="b"><path fill="#6f7683" d="M0 0h1.102v2.171H0z"/></symbol></defs><path class="a" d="M0 0h120v71.643H0z"/><g style="animation-duration:17.291095s;animation-iteration-count:infinite;animation-name:k;animation-timing-function:steps(1,end)"><svg width="5280"><svg><use xlink:href="#a"/><use xlink:href="#b" x="-.004"/></svg><svg x="120"><use xlink:href="#a"/><use xlink:href="#b" x="41.996"/><use xlink:href="#1"/></svg><svg x="240"><use xlink:href="#a"/><use xlink:href="#b" x="42.996"/><text y="1.67" class="f">ben@bouzin</text><text x="10.02" y="1.67" class="g">:</text><text x="11.022" y="1.67" class="h">~/src/rock/rocktest/scen-test</text><text x="40.08" y="1.67" class="g">$</text><text x="42.084" y="1.67" class="g">c</text></svg><svg x="360"><use xlink:href="#a"/><use xlink:href="#b" x="43.996"/><text y="1.67" class="f">ben@bouzin</text><text x="10.02" y="1.67" class="g">:</text><text x="11.022" y="1.67" class="h">~/src/rock/rocktest/scen-test</text><text x="40.08" y="1.67" class="g">$</text><text x="42.084" y="1.67" class="g">ca</text></svg><svg x="480"><use xlink:href="#a"/><use xlink:href="#b" x="44.996"/><use xlink:href="#2"/></svg><svg x="600"><use xlink:href="#a"/><use xlink:href="#b" x="45.996"/><use xlink:href="#2"/></svg><svg x="720"><use xlink:href="#a"/><use xlink:href="#b" x="46.996"/><text y="1.67" class="f">ben@bouzin</text><text x="10.02" y="1.67" class="g">:</text><text x="11.022" y="1.67" class="h">~/src/rock/rocktest/scen-test</text><text x="40.08" y="1.67" class="g">$</text><text x="42.084" y="1.67" class="g">cat</text><text x="46.092" y="1.67" class="g">h</text></svg><svg x="840"><use xlink:href="#a"/><use xlink:href="#b" x="47.996"/><text y="1.67" class="f">ben@bouzin</text><text x="10.02" y="1.67" class="g">:</text><text x="11.022" y="1.67" class="h">~/src/rock/rocktest/scen-test</text><text x="40.08" y="1.67" class="g">$</text><text x="42.084" y="1.67" class="g">cat</text><text x="46.092" y="1.67" class="g">he</text></svg><svg x="960"><use xlink:href="#a"/><use xlink:href="#b" x="48.996"/><text y="1.67" class="f">ben@bouzin</text><text x="10.02" y="1.67" class="g">:</text><text x="11.022" y="1.67" class="h">~/src/rock/rocktest/scen-test</text><text x="40.08" y="1.67" class="g">$</text><text x="42.084" y="1.67" class="g">cat</text><text x="46.092" y="1.67" class="g">hel</text></svg><svg x="1080"><use xlink:href="#a"/><use xlink:href="#b" x="49.996"/><text y="1.67" class="f">ben@bouzin</text><text x="10.02" y="1.67" class="g">:</text><text x="11.022" y="1.67" class="h">~/src/rock/rocktest/scen-test</text><text x="40.08" y="1.67" class="g">$</text><text x="42.084" y="1.67" class="g">cat</text><text x="46.092" y="1.67" class="g">hell</text></svg><svg x="1200"><use xlink:href="#a"/><use xlink:href="#b" x="50.996"/><text y="1.67" class="f">ben@bouzin</text><text x="10.02" y="1.67" class="g">:</text><text x="11.022" y="1.67" class="h">~/src/rock/rocktest/scen-test</text><text x="40.08" y="1.67" class="g">$</text><text x="42.084" y="1.67" class="g">cat</text><text x="46.092" y="1.67" class="g">hello</text></svg><svg x="1320"><use xlink:href="#a"/><use xlink:href="#b" x="56.996"/><use xlink:href="#3"/></svg><svg x="1440"><use xlink:href="#a"/><use xlink:href="#b" x="-.004" y="2.146"/><use xlink:href="#3"/></svg><svg x="1560"><use xlink:href="#a"/><use xlink:href="#b" x="-.004" y="4.317"/><use xlink:href="#3"/><use xlink:href="#4" y="2.171"/></svg><svg x="1680"><use xlink:href="#a"/><use xlink:href="#b" x="41.996" y="4.317"/><use xlink:href="#3"/><use xlink:href="#4" y="2.171"/><use xlink:href="#1" y="4.342"/></svg><svg x="1800"><use xlink:href="#a"/><use xlink:href="#b" x="42.996" y="4.317"/><use xlink:href="#3"/><use xlink:href="#4" y="2.171"/><text y="6.012" class="f">ben@bouzin</text><text x="10.02" y="6.012" class="g">:</text><text x="11.022" y="6.012" class="h">~/src/rock/rocktest/scen-test</text><text x="40.08" y="6.012" class="g">$</text><text x="42.084" y="6.012" class="g">r</text></svg><svg x="1920"><use xlink:href="#a"/><use xlink:href="#b" x="43.996" y="4.317"/><use xlink:href="#3"/><use xlink:href="#4" y="2.171"/><text y="6.012" class="f">ben@bouzin</text><text x="10.02" y="6.012" class="g">:</text><text x="11.022" y="6.012" class="h">~/src/rock/rocktest/scen-test</text><text x="40.08" y="6.012" class="g">$</text><text x="42.084" y="6.012" class="g">ro</text></svg><svg x="2040"><use xlink:href="#a"/><use xlink:href="#b" x="44.996" y="4.317"/><use xlink:href="#3"/><use xlink:href="#4" y="2.171"/><text y="6.012" class="f">ben@bouzin</text><text x="10.02" y="6.012" class="g">:</text><text x="11.022" y="6.012" class="h">~/src/rock/rocktest/scen-test</text><text x="40.08" y="6.012" class="g">$</text><text x="42.084" y="6.012" class="g">roc</text></svg><svg x="2160"><use xlink:href="#a"/><use xlink:href="#b" x="45.996" y="4.317"/><use xlink:href="#3"/><use xlink:href="#4" y="2.171"/><text y="6.012" class="f">ben@bouzin</text><text x="10.02" y="6.012" class="g">:</text><text x="11.022" y="6.012" class="h">~/src/rock/rocktest/scen-test</text><text x="40.08" y="6.012" class="g">$</text><text x="42.084" y="6.012" class="g">rock</text></svg><svg x="2280"><use xlink:href="#a"/><use xlink:href="#b" x="46.996" y="4.317"/><use xlink:href="#3"/><use xlink:href="#4" y="2.171"/><text y="6.012" class="f">ben@bouzin</text><text x="10.02" y="6.012" class="g">:</text><text x="11.022" y="6.012" class="h">~/src/rock/rocktest/scen-test</text><text x="40.08" y="6.012" class="g">$</text><text x="42.084" y="6.012" class="g">rockt</text></svg><svg x="2400"><use xlink:href="#a"/><use xlink:href="#b" x="47.996" y="4.317"/><use xlink:href="#3"/><use xlink:href="#4" y="2.171"/><text y="6.012" class="f">ben@bouzin</text><text x="10.02" y="6.012" class="g">:</text><text x="11.022" y="6.012" class="h">~/src/rock/rocktest/scen-test</text><text x="40.08" y="6.012" class="g">$</text><text x="42.084" y="6.012" class="g">rockte</text></svg><svg x="2520"><use xlink:href="#a"/><use xlink:href="#b" x="48.996" y="4.317"/><use xlink:href="#3"/><use xlink:href="#4" y="2.171"/><text y="6.012" class="f">ben@bouzin</text><text x="10.02" y="6.012" class="g">:</text><text x="11.022" y="6.012" class="h">~/src/rock/rocktest/scen-test</text><text x="40.08" y="6.012" class="g">$</text><text x="42.084" y="6.012" class="g">rocktes</text></svg><svg x="2640"><use xlink:href="#a"/><use xlink:href="#b" x="49.996" y="4.317"/><use xlink:href="#3"/><use xlink:href="#4" y="2.171"/><use xlink:href="#5" y="4.342"/></svg><svg x="2760"><use xlink:href="#a"/><use xlink:href="#b" x="50.996" y="4.317"/><use xlink:href="#3"/><use xlink:href="#4" y="2.171"/><use xlink:href="#5" y="4.342"/></svg><svg x="2880"><use xlink:href="#a"/><use xlink:href="#b" x="51.996" y="4.317"/><use xlink:href="#3"/><use xlink:href="#4" y="2.171"/><text y="6.012" class="f">ben@bouzin</text><text x="10.02" y="6.012" class="g">:</text><text x="11.022" y="6.012" class="h">~/src/rock/rocktest/scen-test</text><text x="40.08" y="6.012" class="g">$</text><text x="42.084" y="6.012" class="g">rocktest</text><text x="51.102" y="6.012" class="g">h</text></svg><svg x="3000"><use xlink:href="#a"/><use xlink:href="#b" x="52.996" y="4.317"/><use xlink:href="#3"/><use xlink:href="#4" y="2.171"/><text y="6.012" class="f">ben@bouzin</text><text x="10.02" y="6.012" class="g">:</text><text x="11.022" y="6.012" class="h">~/src/rock/rocktest/scen-test</text><text x="40.08" y="6.012" class="g">$</text><text x="42.084" y="6.012" class="g">rocktest</text><text x="51.102" y="6.012" class="g">he</text></svg><svg x="3120"><use xlink:href="#a"/><use xlink:href="#b" x="53.996" y="4.317"/><use xlink:href="#3"/><use xlink:href="#4" y="2.171"/><text y="6.012" class="f">ben@bouzin</text><text x="10.02" y="6.012" class="g">:</text><text x="11.022" y="6.012" class="h">~/src/rock/rocktest/scen-test</text><text x="40.08" y="6.012" class="g">$</text><text x="42.084" y="6.012" class="g">rocktest</text><text x="51.102" y="6.012" class="g">hel</text></svg><svg x="3240"><use xlink:href="#a"/><use xlink:href="#b" x="54.996" y="4.317"/><use xlink:href="#3"/><use xlink:href="#4" y="2.171"/><text y="6.012" class="f">ben@bouzin</text><text x="10.02" y="6.012" class="g">:</text><text x="11.022" y="6.012" class="h">~/src/rock/rocktest/scen-test</text><text x="40.08" y="6.012" class="g">$</text><text x="42.084" y="6.012" class="g">rocktest</text><text x="51.102" y="6.012" class="g">hell</text></svg><svg x="3360"><use xlink:href="#a"/><use xlink:href="#b" x="55.996" y="4.317"/><use xlink:href="#3"/><use xlink:href="#4" y="2.171"/><text y="6.012" class="f">ben@bouzin</text><text x="10.02" y="6.012" class="g">:</text><text x="11.022" y="6.012" class="h">~/src/rock/rocktest/scen-test</text><text x="40.08" y="6.012" class="g">$</text><text x="42.084" y="6.012" class="g">rocktest</text><text x="51.102" y="6.012" class="g">hello</text></svg><svg x="3480"><use xlink:href="#a"/><use xlink:href="#b" x="61.996" y="4.317"/><use xlink:href="#3"/><use xlink:href="#4" y="2.171"/><use xlink:href="#6" y="4.342"/></svg><svg x="3600"><use xlink:href="#a"/><use xlink:href="#b" x="-.004" y="6.488"/><use xlink:href="#3"/><use xlink:href="#4" y="2.171"/><use xlink:href="#6" y="4.342"/></svg><svg x="3720"><use xlink:href="#a"/><use xlink:href="#b" x="-.004" y="19.514"/><use xlink:href="#3"/><use xlink:href="#4" y="2.171"/><use xlink:href="#6" y="4.342"/><use xlink:href="#7" y="6.513"/><use xlink:href="#8" y="8.684"/><use xlink:href="#9" y="10.855"/><use xlink:href="#10" y="13.026"/><use xlink:href="#11" y="15.197"/><use xlink:href="#12" y="17.368"/></svg><svg x="3840"><use xlink:href="#a"/><use xlink:href="#b" x="-.004" y="23.856"/><use xlink:href="#3"/><use xlink:href="#4" y="2.171"/><use xlink:href="#6" y="4.342"/><use xlink:href="#7" y="6.513"/><use xlink:href="#8" y="8.684"/><use xlink:href="#9" y="10.855"/><use xlink:href="#10" y="13.026"/><use xlink:href="#11" y="15.197"/><use xlink:href="#12" y="17.368"/><use xlink:href="#13" y="19.539"/><use xlink:href="#14" y="21.71"/></svg><svg x="3960"><use xlink:href="#a"/><use xlink:href="#b" x="-.004" y="26.027"/><use xlink:href="#3"/><use xlink:href="#4" y="2.171"/><use xlink:href="#6" y="4.342"/><use xlink:href="#7" y="6.513"/><use xlink:href="#8" y="8.684"/><use xlink:href="#9" y="10.855"/><use xlink:href="#10" y="13.026"/><use xlink:href="#11" y="15.197"/><use xlink:href="#12" y="17.368"/><use xlink:href="#13" y="19.539"/><use xlink:href="#14" y="21.71"/><use xlink:href="#15" y="23.881"/></svg><svg x="4080"><use xlink:href="#a"/><use xlink:href="#b" x="-.004" y="28.198"/><use xlink:href="#3"/><use xlink:href="#4" y="2.171"/><use xlink:href="#6" y="4.342"/><use xlink:href="#7" y="6.513"/><use xlink:href="#8" y="8.684"/><use xlink:href="#9" y="10.855"/><use xlink:href="#10" y="13.026"/><use xlink:href="#11" y="15.197"/><use xlink:href="#12" y="17.368"/><use xlink:href="#13" y="19.539"/><use xlink:href="#14" y="21.71"/><use xlink:href="#15" y="23.881"/><use xlink:href="#16" y="26.052"/></svg><svg x="4200"><use xlink:href="#a"/><use xlink:href="#b" x="-.004" y="30.369"/><use xlink:href="#3"/><use xlink:href="#4" y="2.171"/><use xlink:href="#6" y="4.342"/><use xlink:href="#7" y="6.513"/><use xlink:href="#8" y="8.684"/><use xlink:href="#9" y="10.855"/><use xlink:href="#10" y="13.026"/><use xlink:href="#11" y="15.197"/><use xlink:href="#12" y="17.368"/><use xlink:href="#13" y="19.539"/><use xlink:href="#14" y="21.71"/><use xlink:href="#15" y="23.881"/><use xlink:href="#16" y="26.052"/><use xlink:href="#17" y="28.223"/></svg><svg x="4320"><use xlink:href="#a"/><use xlink:href="#b" x="-.004" y="32.54"/><use xlink:href="#3"/><use xlink:href="#4" y="2.171"/><use xlink:href="#6" y="4.342"/><use xlink:href="#7" y="6.513"/><use xlink:href="#8" y="8.684"/><use xlink:href="#9" y="10.855"/><use xlink:href="#10" y="13.026"/><use xlink:href="#11" y="15.197"/><use xlink:href="#12" y="17.368"/><use xlink:href="#13" y="19.539"/><use xlink:href="#14" y="21.71"/><use xlink:href="#15" y="23.881"/><use xlink:href="#16" y="26.052"/><use xlink:href="#17" y="28.223"/><use xlink:href="#18" y="30.394"/></svg><svg x="4440"><use xlink:href="#a"/><use xlink:href="#b" x="-.004" y="36.882"/><use xlink:href="#3"/><use xlink:href="#4" y="2.171"/><use xlink:href="#6" y="4.342"/><use xlink:href="#7" y="6.513"/><use xlink:href="#8" y="8.684"/><use xlink:href="#9" y="10.855"/><use xlink:href="#10" y="13.026"/><use xlink:href="#11" y="15.197"/><use xlink:href="#12" y="17.368"/><use xlink:href="#13" y="19.539"/><use xlink:href="#14" y="21.71"/><use xlink:href="#15" y="23.881"/><use xlink:href="#16" y="26.052"/><use xlink:href="#17" y="28.223"/><use xlink:href="#18" y="30.394"/><use xlink:href="#19" y="32.565"/><use xlink:href="#20" y="34.736"/></svg><svg x="4560"><use xlink:href="#a"/><use xlink:href="#b" x="-.004" y="39.053"/><use xlink:href="#3"/><use xlink:href="#4" y="2.171"/><use xlink:href="#6" y="4.342"/><use xlink:href="#7" y="6.513"/><use xlink:href="#8" y="8.684"/><use xlink:href="#9" y="10.855"/><use xlink:href="#10" y="13.026"/><use xlink:href="#11" y="15.197"/><use xlink:href="#12" y="17.368"/><use xlink:href="#13" y="19.539"/><use xlink:href="#14" y="21.71"/><use xlink:href="#15" y="23.881"/><use xlink:href="#16" y="26.052"/><use xlink:href="#17" y="28.223"/><use xlink:href="#18" y="30.394"/><use xlink:href="#19" y="32.565"/><use xlink:href="#20" y="34.736"/><use xlink:href="#21" y="36.907"/></svg><svg x="4680"><use xlink:href="#a"/><use xlink:href="#b" x="-.004" y="43.395"/><use xlink:href="#3"/><use xlink:href="#4" y="2.171"/><use xlink:href="#6" y="4.342"/><use xlink:href="#7" y="6.513"/><use xlink:href="#8" y="8.684"/><use xlink:href="#9" y="10.855"/><use xlink:href="#10" y="13.026"/><use xlink:href="#11" y="15.197"/><use xlink:href="#12" y="17.368"/><use xlink:href="#13" y="19.539"/><use xlink:href="#14" y="21.71"/><use xlink:href="#15" y="23.881"/><use xlink:href="#16" y="26.052"/><use xlink:href="#17" y="28.223"/><use xlink:href="#18" y="30.394"/><use xlink:href="#19" y="32.565"/><use xlink:href="#20" y="34.736"/><use xlink:href="#21" y="36.907"/><use xlink:href="#22" y="39.078"/><use xlink:href="#20" y="41.249"/></svg><svg x="4800"><use xlink:href="#a"/><use xlink:href="#b" x="-.004" y="49.908"/><use xlink:href="#3"/><use xlink:href="#4" y="2.171"/><use xlink:href="#6" y="4.342"/><use xlink:href="#7" y="6.513"/><use xlink:href="#8" y="8.684"/><use xlink:href="#9" y="10.855"/><use xlink:href="#10" y="13.026"/><use xlink:href="#11" y="15.197"/><use xlink:href="#12" y="17.368"/><use xlink:href="#13" y="19.539"/><use xlink:href="#14" y="21.71"/><use xlink:href="#15" y="23.881"/><use xlink:href="#16" y="26.052"/><use xlink:href="#17" y="28.223"/><use xlink:href="#18" y="30.394"/><use xlink:href="#19" y="32.565"/><use xlink:href="#20" y="34.736"/><use xlink:href="#21" y="36.907"/><use xlink:href="#22" y="39.078"/><use xlink:href="#20" y="41.249"/><use xlink:href="#23" y="43.42"/><use xlink:href="#24" y="45.591"/><use xlink:href="#23" y="47.762"/></svg><svg x="4920"><use xlink:href="#a"/><use xlink:href="#b" x="-.004" y="52.079"/><use xlink:href="#3"/><use xlink:href="#4" y="2.171"/><use xlink:href="#6" y="4.342"/><use xlink:href="#7" y="6.513"/><use xlink:href="#8" y="8.684"/><use xlink:href="#9" y="10.855"/><use xlink:href="#10" y="13.026"/><use xlink:href="#11" y="15.197"/><use xlink:href="#12" y="17.368"/><use xlink:href="#13" y="19.539"/><use xlink:href="#14" y="21.71"/><use xlink:href="#15" y="23.881"/><use xlink:href="#16" y="26.052"/><use xlink:href="#17" y="28.223"/><use xlink:href="#18" y="30.394"/><use xlink:href="#19" y="32.565"/><use xlink:href="#20" y="34.736"/><use xlink:href="#21" y="36.907"/><use xlink:href="#22" y="39.078"/><use xlink:href="#20" y="41.249"/><use xlink:href="#23" y="43.42"/><use xlink:href="#24" y="45.591"/><use xlink:href="#23" y="47.762"/><use xlink:href="#25" y="49.933"/></svg><svg x="5040"><use xlink:href="#a"/><use xlink:href="#b" x="41.996" y="52.079"/><use xlink:href="#3"/><use xlink:href="#4" y="2.171"/><use xlink:href="#6" y="4.342"/><use xlink:href="#7" y="6.513"/><use xlink:href="#8" y="8.684"/><use xlink:href="#9" y="10.855"/><use xlink:href="#10" y="13.026"/><use xlink:href="#11" y="15.197"/><use xlink:href="#12" y="17.368"/><use xlink:href="#13" y="19.539"/><use xlink:href="#14" y="21.71"/><use xlink:href="#15" y="23.881"/><use xlink:href="#16" y="26.052"/><use xlink:href="#17" y="28.223"/><use xlink:href="#18" y="30.394"/><use xlink:href="#19" y="32.565"/><use xlink:href="#20" y="34.736"/><use xlink:href="#21" y="36.907"/><use xlink:href="#22" y="39.078"/><use xlink:href="#20" y="41.249"/><use xlink:href="#23" y="43.42"/><use xlink:href="#24" y="45.591"/><use xlink:href="#23" y="47.762"/><use xlink:href="#25" y="49.933"/><use xlink:href="#1" y="52.104"/></svg><svg x="5160"><use xlink:href="#a"/><use xlink:href="#b" x="-.004" y="54.25"/><use xlink:href="#3"/><use xlink:href="#4" y="2.171"/><use xlink:href="#6" y="4.342"/><use xlink:href="#7" y="6.513"/><use xlink:href="#8" y="8.684"/><use xlink:href="#9" y="10.855"/><use xlink:href="#10" y="13.026"/><use xlink:href="#11" y="15.197"/><use xlink:href="#12" y="17.368"/><use xlink:href="#13" y="19.539"/><use xlink:href="#14" y="21.71"/><use xlink:href="#15" y="23.881"/><use xlink:href="#16" y="26.052"/><use xlink:href="#17" y="28.223"/><use xlink:href="#18" y="30.394"/><use xlink:href="#19" y="32.565"/><use xlink:href="#20" y="34.736"/><use xlink:href="#21" y="36.907"/><use xlink:href="#22" y="39.078"/><use xlink:href="#20" y="41.249"/><use xlink:href="#23" y="43.42"/><use xlink:href="#24" y="45.591"/><use xlink:href="#23" y="47.762"/><use xlink:href="#25" y="49.933"/><text y="53.774" class="f">ben@bouzin</text><text x="10.02" y="53.774" class="g">:</text><text x="11.022" y="53.774" class="h">~/src/rock/rocktest/scen-test</text><text x="40.08" y="53.774" class="g">$</text><text x="42.084" y="53.774" class="g">exit</text></svg></svg></g></g></svg></svg>