<svg xmlns="http://www.w3.org/2000/svg" xmlns:xlink="http://www.w3.org/1999/xlink" width="930" height="689.59"><rect width="930" height="689.59" rx="5" ry="5" class="a"/><svg y="0%" x="0%"><circle cx="20" cy="20" r="6" fill="#ff5f58"/><circle cx="40" cy="20" r="6" fill="#ffbd2e"/><circle cx="60" cy="20" r="6" fill="#18c132"/></svg><svg height="629.59" viewBox="0 0 89 62.959" width="890" x="15" xmlns="http://www.w3.org/2000/svg" xmlns:xlink="http://www.w3.org/1999/xlink" y="50"><style>@keyframes k{0%{transform:translateX(0)}.12%{transform:translateX(-89px)}17.33%{transform:translateX(-178px)}18.91%{transform:translateX(-267px)}20.79%{transform:translateX(-356px)}24.76%{transform:translateX(-445px)}26.67%{transform:translateX(-534px)}27.74%{transform:translateX(-623px)}28.92%{transform:translateX(-712px)}29.89%{transform:translateX(-801px)}30.95%{transform:translateX(-890px)}32.07%{transform:translateX(-979px)}37.27%{transform:translateX(-1068px)}37.28%{transform:translateX(-1246px)}50.23%{transform:translateX(-1335px)}50.89%{transform:translateX(-1424px)}51.8%{transform:translateX(-1513px)}52.21%{transform:translateX(-1602px)}53.63%{transform:translateX(-1691px)}54.08%{transform:translateX(-1780px)}55.36%{transform:translateX(-1869px)}55.95%{transform:translateX(-1958px)}59.52%{transform:translateX(-2047px)}62.4%{transform:translateX(-2136px)}65.27%{transform:translateX(-2225px)}66.4%{transform:translateX(-2314px)}67.3%{transform:translateX(-2403px)}68.52%{transform:translateX(-2492px)}69.84%{transform:translateX(-2581px)}76.83%{transform:translateX(-2670px)}79.68%{transform:translateX(-2759px)}79.88%{transform:translateX(-2937px)}82.49%{transform:translateX(-3026px)}82.67%{transform:translateX(-3115px)}82.68%{transform:translateX(-3204px)}82.8%{transform:translateX(-3293px)}82.81%{transform:translateX(-3382px)}82.84%{transform:translateX(-3738px)}82.98%{transform:translateX(-3827px)}to{transform:translateX(-3916px)}}.a{fill:#282d35}.f,.g,.h{white-space:pre}.f{fill:#a8cc8c;font-weight:700}.g,.h{fill:#b9c0cb}.h{fill:#71bef2;font-weight:700}</style><g font-family="Monaco,Consolas,Menlo,'Bitstream Vera Sans Mono','Powerline Symbols',monospace" font-size="1.67"><defs><symbol id="16"><text y="1.67" class="g">22/03/2021</text><text x="11.022" y="1.67" class="g">21:59:27.448</text><text x="24.048" y="1.67" class="g">[INFO</text><text x="30.06" y="1.67" class="g">]</text><text x="32.064" y="1.67" class="g">-</text><text x="35.07" y="1.67" class="g">No</text><text x="38.076" y="1.67" class="g">active</text><text x="45.09" y="1.67" class="g">profile</text><text x="53.106" y="1.67" class="g">set,</text><text x="58.116" y="1.67" class="g">falling</text><text x="66.132" y="1.67" class="g">back</text><text x="71.142" y="1.67" class="g">to</text><text x="74.148" y="1.67" class="g">default</text><text x="82.164" y="1.67" class="g">profile</text></symbol><symbol id="1"><text y="1.67" class="f">ben@bouzin</text><text x="10.02" y="1.67" class="g">:</text><text x="11.022" y="1.67" class="h">~/src/rock/rocktest/scen-test</text><text x="40.08" y="1.67" class="g">$</text></symbol><symbol id="3"><text y="1.67" class="f">ben@bouzin</text><text x="10.02" y="1.67" class="g">:</text><text x="11.022" y="1.67" class="h">~/src/rock/rocktest/scen-test</text><text x="40.08" y="1.67" class="g">$</text><text x="42.084" y="1.67" class="g">cat</text><text x="46.092" y="1.67" class="g">hello.yaml</text></symbol><symbol id="4"><text y="1.67" class="g">-</text><text x="2.004" y="1.67" class="g">display:</text><text x="12.024" y="1.67" class="g">Hello</text><text x="18.036" y="1.67" class="g">RockTest</text><text x="27.054" y="1.67" class="g">!</text></symbol><symbol id="5"><text y="1.67" class="f">ben@bouzin</text><text x="10.02" y="1.67" class="g">:</text><text x="11.022" y="1.67" class="h">~/src/rock/rocktest/scen-test</text><text x="40.08" y="1.67" class="g">$</text><text x="42.084" y="1.67" class="g">rocktest</text></symbol><symbol id="6"><text y="1.67" class="f">ben@bouzin</text><text x="10.02" y="1.67" class="g">:</text><text x="11.022" y="1.67" class="h">~/src/rock/rocktest/scen-test</text><text x="40.08" y="1.67" class="g">$</text><text x="42.084" y="1.67" class="g">rocktest</text><text x="51.102" y="1.67" class="g">hello.yaml</text></symbol><symbol id="7"><text y="1.67" class="g">________</text><text x="23.046" y="1.67" class="g">______</text><text x="31.062" y="1.67" class="g">________</text><text x="53.106" y="1.67" class="g">_____</text></symbol><symbol id="8"><text y="1.67" class="g">___</text><text x="5.01" y="1.67" class="g">__</text><text x="8.016" y="1.67" class="g">\______</text><text x="16.032" y="1.67" class="g">__________</text><text x="28.056" y="1.67" class="g">/_____</text><text x="36.072" y="1.67" class="g">__/_____</text><text x="45.09" y="1.67" class="g">__________</text><text x="57.114" y="1.67" class="g">/_</text></symbol><symbol id="9"><text y="1.67" class="g">__</text><text x="4.008" y="1.67" class="g">/_/</text><text x="8.016" y="1.67" class="g">/_</text><text x="12.024" y="1.67" class="g">__</text><text x="15.03" y="1.67" class="g">\_</text><text x="19.038" y="1.67" class="g">___/__</text><text x="27.054" y="1.67" class="g">//_/__</text><text x="35.07" y="1.67" class="g">/</text><text x="39.078" y="1.67" class="g">_</text><text x="42.084" y="1.67" class="g">_</text><text x="44.088" y="1.67" class="g">\__</text><text x="49.098" y="1.67" class="g">___/_</text><text x="56.112" y="1.67" class="g">__/</text></symbol><symbol id="10"><text y="1.67" class="g">_</text><text x="3.006" y="1.67" class="g">_,</text><text x="6.012" y="1.67" class="g">_/</text><text x="9.018" y="1.67" class="g">/</text><text x="11.022" y="1.67" class="g">/_/</text><text x="15.03" y="1.67" class="g">//</text><text x="18.036" y="1.67" class="g">/__</text><text x="23.046" y="1.67" class="g">_</text><text x="26.052" y="1.67" class="g">,&lt;</text><text x="31.062" y="1.67" class="g">_</text><text x="34.068" y="1.67" class="g">/</text><text x="39.078" y="1.67" class="g">/</text><text x="42.084" y="1.67" class="g">__/_(__</text><text x="51.102" y="1.67" class="g">)</text><text x="53.106" y="1.67" class="g">/</text><text x="55.11" y="1.67" class="g">/_</text></symbol><symbol id="11"><text y="1.67" class="g">/_/</text><text x="4.008" y="1.67" class="g">|_|</text><text x="9.018" y="1.67" class="g">\____/</text><text x="16.032" y="1.67" class="g">\___/</text><text x="23.046" y="1.67" class="g">/_/|_|</text><text x="31.062" y="1.67" class="g">/_/</text><text x="39.078" y="1.67" class="g">\___/</text><text x="45.09" y="1.67" class="g">/____/</text><text x="53.106" y="1.67" class="g">\__/</text></symbol><symbol id="12"><text x="1.002" y="1.67" class="g">Test</text><text x="6.012" y="1.67" class="g">automation</text><text x="17.034" y="1.67" class="g">that</text><text x="22.044" y="1.67" class="g">rocks</text><text x="28.056" y="1.67" class="g">!</text><text x="37.074" y="1.67" class="g">(v1.0.6)</text></symbol><symbol id="13"><text y="1.67" class="g">22/03/2021</text><text x="11.022" y="1.67" class="g">21:59:27.447</text><text x="24.048" y="1.67" class="g">[INFO</text><text x="30.06" y="1.67" class="g">]</text><text x="32.064" y="1.67" class="g">-</text><text x="35.07" y="1.67" class="g">Starting</text><text x="44.088" y="1.67" class="g">RocktestApplication</text><text x="64.128" y="1.67" class="g">v1.0.6</text><text x="71.142" y="1.67" class="g">on</text><text x="74.148" y="1.67" class="g">bouzin</text><text x="81.162" y="1.67" class="g">with</text><text x="86.172" y="1.67" class="g">PID</text></symbol><symbol id="14"><text x="1.002" y="1.67" class="g">138301</text><text x="8.016" y="1.67" class="g">(/home/ben/src/rock/rocktest/target/rocktest-1.0.6.jar</text><text x="63.126" y="1.67" class="g">started</text><text x="71.142" y="1.67" class="g">by</text><text x="74.148" y="1.67" class="g">ben</text><text x="78.156" y="1.67" class="g">in</text><text x="81.162" y="1.67" class="g">/home/be</text></symbol><symbol id="15"><text y="1.67" class="g">n/src/rock/rocktest/scen-test)</text></symbol><symbol id="2"><text y="1.67" class="f">ben@bouzin</text><text x="10.02" y="1.67" class="g">:</text><text x="11.022" y="1.67" class="h">~/src/rock/rocktest/scen-test</text><text x="40.08" y="1.67" class="g">$</text><text x="42.084" y="1.67" class="g">cat</text></symbol><symbol id="17"><text y="1.67" class="g">s:</text><text x="3.006" y="1.67" class="g">default</text></symbol><symbol id="18"><text y="1.67" class="g">22/03/2021</text><text x="11.022" y="1.67" class="g">21:59:27.918</text><text x="24.048" y="1.67" class="g">[INFO</text><text x="30.06" y="1.67" class="g">]</text><text x="32.064" y="1.67" class="g">-</text><text x="35.07" y="1.67" class="g">Started</text><text x="43.086" y="1.67" class="g">RocktestApplication</text><text x="63.126" y="1.67" class="g">in</text><text x="66.132" y="1.67" class="g">0.697</text><text x="72.144" y="1.67" class="g">seconds</text><text x="80.16" y="1.67" class="g">(JVM</text><text x="85.17" y="1.67" class="g">runn</text></symbol><symbol id="19"><text y="1.67" class="g">ing</text><text x="4.008" y="1.67" class="g">for</text><text x="8.016" y="1.67" class="g">1.008)</text></symbol><symbol id="20"><text y="1.67" class="g">22/03/2021</text><text x="11.022" y="1.67" class="g">21:59:27.950</text><text x="24.048" y="1.67" class="g">[INFO</text><text x="30.06" y="1.67" class="g">]</text><text x="32.064" y="1.67" class="g">-</text><text x="35.07" y="1.67" class="g">Set</text><text x="39.078" y="1.67" class="g">variable</text><text x="48.096" y="1.67" class="g">module</text><text x="55.11" y="1.67" class="g">=</text><text x="57.114" y="1.67" class="g">hello</text></symbol><symbol id="21"><text y="1.67" class="g">22/03/2021</text><text x="11.022" y="1.67" class="g">21:59:27.951</text><text x="24.048" y="1.67" class="g">[INFO</text><text x="30.06" y="1.67" class="g">]</text><text x="32.064" y="1.67" class="g">-</text><text x="35.07" y="1.67" class="g">Load</text><text x="40.08" y="1.67" class="g">scenario.</text><text x="50.1" y="1.67" class="g">name=hello.yaml,</text><text x="67.134" y="1.67" class="g">dir=.</text></symbol><symbol id="22"><text y="1.67" class="g">22/03/2021</text><text x="11.022" y="1.67" class="g">21:59:27.973</text><text x="24.048" y="1.67" class="g">[INFO</text><text x="30.06" y="1.67" class="g">]</text><text x="32.064" y="1.67" class="g">-</text><text x="35.07" y="1.67" class="g">Set</text><text x="39.078" y="1.67" class="g">variable</text><text x="48.096" y="1.67" class="g">module</text><text x="55.11" y="1.67" class="g">=</text><text x="57.114" y="1.67" class="g">hello</text></symbol><symbol id="23"><text y="1.67" class="g">----------------------------------------</text></symbol><symbol id="24"><text y="1.67" class="g">22/03/2021</text><text x="11.022" y="1.67" class="g">21:59:27.975</text><text x="24.048" y="1.67" class="g">[INFO</text><text x="30.06" y="1.67" class="g">]</text><text x="32.064" y="1.67" class="g">-</text><text x="34.068" y="1.67" class="g">[hello]</text><text x="42.084" y="1.67" class="g">Step#1</text><text x="49.098" y="1.67" class="g">display,Hello</text><text x="63.126" y="1.67" class="g">RockTest</text><text x="72.144" y="1.67" class="g">!</text></symbol><symbol id="25"><text y="1.67" class="g">22/03/2021</text><text x="11.022" y="1.67" class="g">21:59:27.981</text><text x="24.048" y="1.67" class="g">[INFO</text><text x="30.06" y="1.67" class="g">]</text><text x="32.064" y="1.67" class="g">-</text><text x="34.068" y="1.67" class="g">[hello]</text><text x="42.084" y="1.67" class="g">Step#1</text><text x="49.098" y="1.67" class="g">Hello</text><text x="55.11" y="1.67" class="g">RockTest</text><text x="64.128" y="1.67" class="g">!</text></symbol><symbol id="26"><text y="1.67" class="g">========================================</text></symbol><symbol id="27"><text y="1.67" class="g">=</text><text x="6.012" y="1.67" class="g">Scenario</text><text x="15.03" y="1.67" class="g">Success</text><text x="23.046" y="1.67" class="g">!</text><text x="25.05" y="1.67" class="g">It</text><text x="28.056" y="1.67" class="g">Rocks</text><text x="39.078" y="1.67" class="g">=</text></symbol><symbol id="28"><text y="1.67" class="g">22/03/2021</text><text x="11.022" y="1.67" class="g">21:59:27.981</text><text x="24.048" y="1.67" class="g">[INFO</text><text x="30.06" y="1.67" class="g">]</text><text x="32.064" y="1.67" class="g">-</text><text x="35.07" y="1.67" class="g">Scenario</text><text x="44.088" y="1.67" class="g">SUCCESS</text></symbol><symbol id="a"><path fill="transparent" d="M0 0h89v29H0z"/></symbol><symbol id="b"><path fill="#6f7683" d="M0 0h1.102v2.171H0z"/></symbol></defs><path class="a" d="M0 0h89v62.959H0z"/><g style="animation-duration:17.988697s;animation-iteration-count:infinite;animation-name:k;animation-timing-function:steps(1,end)"><svg width="4005"><svg><use xlink:href="#a"/><use xlink:href="#b" x="-.004"/></svg><svg x="89"><use xlink:href="#a"/><use xlink:href="#b" x="41.996"/><use xlink:href="#1"/></svg><svg x="178"><use xlink:href="#a"/><use xlink:href="#b" x="42.996"/><text y="1.67" class="f">ben@bouzin</text><text x="10.02" y="1.67" class="g">:</text><text x="11.022" y="1.67" class="h">~/src/rock/rocktest/scen-test</text><text x="40.08" y="1.67" class="g">$</text><text x="42.084" y="1.67" class="g">c</text></svg><svg x="267"><use xlink:href="#a"/><use xlink:href="#b" x="43.996"/><text y="1.67" class="f">ben@bouzin</text><text x="10.02" y="1.67" class="g">:</text><text x="11.022" y="1.67" class="h">~/src/rock/rocktest/scen-test</text><text x="40.08" y="1.67" class="g">$</text><text x="42.084" y="1.67" class="g">ca</text></svg><svg x="356"><use xlink:href="#a"/><use xlink:href="#b" x="44.996"/><use xlink:href="#2"/></svg><svg x="445"><use xlink:href="#a"/><use xlink:href="#b" x="45.996"/><use xlink:href="#2"/></svg><svg x="534"><use xlink:href="#a"/><use xlink:href="#b" x="46.996"/><text y="1.67" class="f">ben@bouzin</text><text x="10.02" y="1.67" class="g">:</text><text x="11.022" y="1.67" class="h">~/src/rock/rocktest/scen-test</text><text x="40.08" y="1.67" class="g">$</text><text x="42.084" y="1.67" class="g">cat</text><text x="46.092" y="1.67" class="g">h</text></svg><svg x="623"><use xlink:href="#a"/><use xlink:href="#b" x="47.996"/><text y="1.67" class="f">ben@bouzin</text><text x="10.02" y="1.67" class="g">:</text><text x="11.022" y="1.67" class="h">~/src/rock/rocktest/scen-test</text><text x="40.08" y="1.67" class="g">$</text><text x="42.084" y="1.67" class="g">cat</text><text x="46.092" y="1.67" class="g">he</text></svg><svg x="712"><use xlink:href="#a"/><use xlink:href="#b" x="48.996"/><text y="1.67" class="f">ben@bouzin</text><text x="10.02" y="1.67" class="g">:</text><text x="11.022" y="1.67" class="h">~/src/rock/rocktest/scen-test</text><text x="40.08" y="1.67" class="g">$</text><text x="42.084" y="1.67" class="g">cat</text><text x="46.092" y="1.67" class="g">hel</text></svg><svg x="801"><use xlink:href="#a"/><use xlink:href="#b" x="49.996"/><text y="1.67" class="f">ben@bouzin</text><text x="10.02" y="1.67" class="g">:</text><text x="11.022" y="1.67" class="h">~/src/rock/rocktest/scen-test</text><text x="40.08" y="1.67" class="g">$</text><text x="42.084" y="1.67" class="g">cat</text><text x="46.092" y="1.67" class="g">hell</text></svg><svg x="890"><use xlink:href="#a"/><use xlink:href="#b" x="50.996"/><text y="1.67" class="f">ben@bouzin</text><text x="10.02" y="1.67" class="g">:</text><text x="11.022" y="1.67" class="h">~/src/rock/rocktest/scen-test</text><text x="40.08" y="1.67" class="g">$</text><text x="42.084" y="1.67" class="g">cat</text><text x="46.092" y="1.67" class="g">hello</text></svg><svg x="979"><use xlink:href="#a"/><use xlink:href="#b" x="56.996"/><use xlink:href="#3"/></svg><svg x="1068"><use xlink:href="#a"/><use xlink:href="#b" x="-.004" y="2.146"/><use xlink:href="#3"/></svg><svg x="1157"><use xlink:href="#a"/><use xlink:href="#b" x="-.004" y="4.317"/><use xlink:href="#3"/><use xlink:href="#4" y="2.171"/></svg><svg x="1246"><use xlink:href="#a"/><use xlink:href="#b" x="41.996" y="4.317"/><use xlink:href="#3"/><use xlink:href="#4" y="2.171"/><use xlink:href="#1" y="4.342"/></svg><svg x="1335"><use xlink:href="#a"/><use xlink:href="#b" x="42.996" y="4.317"/><use xlink:href="#3"/><use xlink:href="#4" y="2.171"/><text y="6.012" class="f">ben@bouzin</text><text x="10.02" y="6.012" class="g">:</text><text x="11.022" y="6.012" class="h">~/src/rock/rocktest/scen-test</text><text x="40.08" y="6.012" class="g">$</text><text x="42.084" y="6.012" class="g">r</text></svg><svg x="1424"><use xlink:href="#a"/><use xlink:href="#b" x="43.996" y="4.317"/><use xlink:href="#3"/><use xlink:href="#4" y="2.171"/><text y="6.012" class="f">ben@bouzin</text><text x="10.02" y="6.012" class="g">:</text><text x="11.022" y="6.012" class="h">~/src/rock/rocktest/scen-test</text><text x="40.08" y="6.012" class="g">$</text><text x="42.084" y="6.012" class="g">ro</text></svg><svg x="1513"><use xlink:href="#a"/><use xlink:href="#b" x="44.996" y="4.317"/><use xlink:href="#3"/><use xlink:href="#4" y="2.171"/><text y="6.012" class="f">ben@bouzin</text><text x="10.02" y="6.012" class="g">:</text><text x="11.022" y="6.012" class="h">~/src/rock/rocktest/scen-test</text><text x="40.08" y="6.012" class="g">$</text><text x="42.084" y="6.012" class="g">roc</text></svg><svg x="1602"><use xlink:href="#a"/><use xlink:href="#b" x="45.996" y="4.317"/><use xlink:href="#3"/><use xlink:href="#4" y="2.171"/><text y="6.012" class="f">ben@bouzin</text><text x="10.02" y="6.012" class="g">:</text><text x="11.022" y="6.012" class="h">~/src/rock/rocktest/scen-test</text><text x="40.08" y="6.012" class="g">$</text><text x="42.084" y="6.012" class="g">rock</text></svg><svg x="1691"><use xlink:href="#a"/><use xlink:href="#b" x="46.996" y="4.317"/><use xlink:href="#3"/><use xlink:href="#4" y="2.171"/><text y="6.012" class="f">ben@bouzin</text><text x="10.02" y="6.012" class="g">:</text><text x="11.022" y="6.012" class="h">~/src/rock/rocktest/scen-test</text><text x="40.08" y="6.012" class="g">$</text><text x="42.084" y="6.012" class="g">rockt</text></svg><svg x="1780"><use xlink:href="#a"/><use xlink:href="#b" x="47.996" y="4.317"/><use xlink:href="#3"/><use xlink:href="#4" y="2.171"/><text y="6.012" class="f">ben@bouzin</text><text x="10.02" y="6.012" class="g">:</text><text x="11.022" y="6.012" class="h">~/src/rock/rocktest/scen-test</text><text x="40.08" y="6.012" class="g">$</text><text x="42.084" y="6.012" class="g">rockte</text></svg><svg x="1869"><use xlink:href="#a"/><use xlink:href="#b" x="48.996" y="4.317"/><use xlink:href="#3"/><use xlink:href="#4" y="2.171"/><text y="6.012" class="f">ben@bouzin</text><text x="10.02" y="6.012" class="g">:</text><text x="11.022" y="6.012" class="h">~/src/rock/rocktest/scen-test</text><text x="40.08" y="6.012" class="g">$</text><text x="42.084" y="6.012" class="g">rocktes</text></svg><svg x="1958"><use xlink:href="#a"/><use xlink:href="#b" x="49.996" y="4.317"/><use xlink:href="#3"/><use xlink:href="#4" y="2.171"/><use xlink:href="#5" y="4.342"/></svg><svg x="2047"><use xlink:href="#a"/><use xlink:href="#b" x="50.996" y="4.317"/><use xlink:href="#3"/><use xlink:href="#4" y="2.171"/><use xlink:href="#5" y="4.342"/></svg><svg x="2136"><use xlink:href="#a"/><use xlink:href="#b" x="51.996" y="4.317"/><use xlink:href="#3"/><use xlink:href="#4" y="2.171"/><text y="6.012" class="f">ben@bouzin</text><text x="10.02" y="6.012" class="g">:</text><text x="11.022" y="6.012" class="h">~/src/rock/rocktest/scen-test</text><text x="40.08" y="6.012" class="g">$</text><text x="42.084" y="6.012" class="g">rocktest</text><text x="51.102" y="6.012" class="g">h</text></svg><svg x="2225"><use xlink:href="#a"/><use xlink:href="#b" x="52.996" y="4.317"/><use xlink:href="#3"/><use xlink:href="#4" y="2.171"/><text y="6.012" class="f">ben@bouzin</text><text x="10.02" y="6.012" class="g">:</text><text x="11.022" y="6.012" class="h">~/src/rock/rocktest/scen-test</text><text x="40.08" y="6.012" class="g">$</text><text x="42.084" y="6.012" class="g">rocktest</text><text x="51.102" y="6.012" class="g">he</text></svg><svg x="2314"><use xlink:href="#a"/><use xlink:href="#b" x="53.996" y="4.317"/><use xlink:href="#3"/><use xlink:href="#4" y="2.171"/><text y="6.012" class="f">ben@bouzin</text><text x="10.02" y="6.012" class="g">:</text><text x="11.022" y="6.012" class="h">~/src/rock/rocktest/scen-test</text><text x="40.08" y="6.012" class="g">$</text><text x="42.084" y="6.012" class="g">rocktest</text><text x="51.102" y="6.012" class="g">hel</text></svg><svg x="2403"><use xlink:href="#a"/><use xlink:href="#b" x="54.996" y="4.317"/><use xlink:href="#3"/><use xlink:href="#4" y="2.171"/><text y="6.012" class="f">ben@bouzin</text><text x="10.02" y="6.012" class="g">:</text><text x="11.022" y="6.012" class="h">~/src/rock/rocktest/scen-test</text><text x="40.08" y="6.012" class="g">$</text><text x="42.084" y="6.012" class="g">rocktest</text><text x="51.102" y="6.012" class="g">hell</text></svg><svg x="2492"><use xlink:href="#a"/><use xlink:href="#b" x="55.996" y="4.317"/><use xlink:href="#3"/><use xlink:href="#4" y="2.171"/><text y="6.012" class="f">ben@bouzin</text><text x="10.02" y="6.012" class="g">:</text><text x="11.022" y="6.012" class="h">~/src/rock/rocktest/scen-test</text><text x="40.08" y="6.012" class="g">$</text><text x="42.084" y="6.012" class="g">rocktest</text><text x="51.102" y="6.012" class="g">hello</text></svg><svg x="2581"><use xlink:href="#a"/><use xlink:href="#b" x="61.996" y="4.317"/><use xlink:href="#3"/><use xlink:href="#4" y="2.171"/><use xlink:href="#6" y="4.342"/></svg><svg x="2670"><use xlink:href="#a"/><use xlink:href="#b" x="-.004" y="6.488"/><use xlink:href="#3"/><use xlink:href="#4" y="2.171"/><use xlink:href="#6" y="4.342"/></svg><svg x="2759"><use xlink:href="#a"/><use xlink:href="#b" x="-.004" y="19.514"/><use xlink:href="#3"/><use xlink:href="#4" y="2.171"/><use xlink:href="#6" y="4.342"/><use xlink:href="#7" y="6.513"/><use xlink:href="#8" y="8.684"/><use xlink:href="#9" y="10.855"/><use xlink:href="#10" y="13.026"/><use xlink:href="#11" y="15.197"/><use xlink:href="#12" y="17.368"/></svg><svg x="2848"><use xlink:href="#a"/><use xlink:href="#b" x="-.004" y="26.027"/><use xlink:href="#3"/><use xlink:href="#4" y="2.171"/><use xlink:href="#6" y="4.342"/><use xlink:href="#7" y="6.513"/><use xlink:href="#8" y="8.684"/><use xlink:href="#9" y="10.855"/><use xlink:href="#10" y="13.026"/><use xlink:href="#11" y="15.197"/><use xlink:href="#12" y="17.368"/><use xlink:href="#13" y="19.539"/><use xlink:href="#14" y="21.71"/><use xlink:href="#15" y="23.881"/></svg><svg x="2937"><use xlink:href="#a"/><use xlink:href="#b" x="-.004" y="30.369"/><use xlink:href="#3"/><use xlink:href="#4" y="2.171"/><use xlink:href="#6" y="4.342"/><use xlink:href="#7" y="6.513"/><use xlink:href="#8" y="8.684"/><use xlink:href="#9" y="10.855"/><use xlink:href="#10" y="13.026"/><use xlink:href="#11" y="15.197"/><use xlink:href="#12" y="17.368"/><use xlink:href="#13" y="19.539"/><use xlink:href="#14" y="21.71"/><use xlink:href="#15" y="23.881"/><use xlink:href="#16" y="26.052"/><use xlink:href="#17" y="28.223"/></svg><svg x="3026"><use xlink:href="#a"/><use xlink:href="#b" x="-.004" y="34.711"/><use xlink:href="#3"/><use xlink:href="#4" y="2.171"/><use xlink:href="#6" y="4.342"/><use xlink:href="#7" y="6.513"/><use xlink:href="#8" y="8.684"/><use xlink:href="#9" y="10.855"/><use xlink:href="#10" y="13.026"/><use xlink:href="#11" y="15.197"/><use xlink:href="#12" y="17.368"/><use xlink:href="#13" y="19.539"/><use xlink:href="#14" y="21.71"/><use xlink:href="#15" y="23.881"/><use xlink:href="#16" y="26.052"/><use xlink:href="#17" y="28.223"/><use xlink:href="#18" y="30.394"/><use xlink:href="#19" y="32.565"/></svg><svg x="3115"><use xlink:href="#a"/><use xlink:href="#b" x="-.004" y="36.882"/><use xlink:href="#3"/><use xlink:href="#4" y="2.171"/><use xlink:href="#6" y="4.342"/><use xlink:href="#7" y="6.513"/><use xlink:href="#8" y="8.684"/><use xlink:href="#9" y="10.855"/><use xlink:href="#10" y="13.026"/><use xlink:href="#11" y="15.197"/><use xlink:href="#12" y="17.368"/><use xlink:href="#13" y="19.539"/><use xlink:href="#14" y="21.71"/><use xlink:href="#15" y="23.881"/><use xlink:href="#16" y="26.052"/><use xlink:href="#17" y="28.223"/><use xlink:href="#18" y="30.394"/><use xlink:href="#19" y="32.565"/><use xlink:href="#20" y="34.736"/></svg><svg x="3204"><use xlink:href="#a"/><use xlink:href="#b" x="-.004" y="39.053"/><use xlink:href="#3"/><use xlink:href="#4" y="2.171"/><use xlink:href="#6" y="4.342"/><use xlink:href="#7" y="6.513"/><use xlink:href="#8" y="8.684"/><use xlink:href="#9" y="10.855"/><use xlink:href="#10" y="13.026"/><use xlink:href="#11" y="15.197"/><use xlink:href="#12" y="17.368"/><use xlink:href="#13" y="19.539"/><use xlink:href="#14" y="21.71"/><use xlink:href="#15" y="23.881"/><use xlink:href="#16" y="26.052"/><use xlink:href="#17" y="28.223"/><use xlink:href="#18" y="30.394"/><use xlink:href="#19" y="32.565"/><use xlink:href="#20" y="34.736"/><use xlink:href="#21" y="36.907"/></svg><svg x="3293"><use xlink:href="#a"/><use xlink:href="#b" x="-.004" y="43.395"/><use xlink:href="#3"/><use xlink:href="#4" y="2.171"/><use xlink:href="#6" y="4.342"/><use xlink:href="#7" y="6.513"/><use xlink:href="#8" y="8.684"/><use xlink:href="#9" y="10.855"/><use xlink:href="#10" y="13.026"/><use xlink:href="#11" y="15.197"/><use xlink:href="#12" y="17.368"/><use xlink:href="#13" y="19.539"/><use xlink:href="#14" y="21.71"/><use xlink:href="#15" y="23.881"/><use xlink:href="#16" y="26.052"/><use xlink:href="#17" y="28.223"/><use xlink:href="#18" y="30.394"/><use xlink:href="#19" y="32.565"/><use xlink:href="#20" y="34.736"/><use xlink:href="#21" y="36.907"/><use xlink:href="#22" y="39.078"/><use xlink:href="#23" y="41.249"/></svg><svg x="3382"><use xlink:href="#a"/><use xlink:href="#b" x="-.004" y="45.566"/><use xlink:href="#3"/><use xlink:href="#4" y="2.171"/><use xlink:href="#6" y="4.342"/><use xlink:href="#7" y="6.513"/><use xlink:href="#8" y="8.684"/><use xlink:href="#9" y="10.855"/><use xlink:href="#10" y="13.026"/><use xlink:href="#11" y="15.197"/><use xlink:href="#12" y="17.368"/><use xlink:href="#13" y="19.539"/><use xlink:href="#14" y="21.71"/><use xlink:href="#15" y="23.881"/><use xlink:href="#16" y="26.052"/><use xlink:href="#17" y="28.223"/><use xlink:href="#18" y="30.394"/><use xlink:href="#19" y="32.565"/><use xlink:href="#20" y="34.736"/><use xlink:href="#21" y="36.907"/><use xlink:href="#22" y="39.078"/><use xlink:href="#23" y="41.249"/><use xlink:href="#24" y="43.42"/></svg><svg x="3471"><use xlink:href="#a"/><use xlink:href="#b" x="-.004" y="49.908"/><use xlink:href="#3"/><use xlink:href="#4" y="2.171"/><use xlink:href="#6" y="4.342"/><use xlink:href="#7" y="6.513"/><use xlink:href="#8" y="8.684"/><use xlink:href="#9" y="10.855"/><use xlink:href="#10" y="13.026"/><use xlink:href="#11" y="15.197"/><use xlink:href="#12" y="17.368"/><use xlink:href="#13" y="19.539"/><use xlink:href="#14" y="21.71"/><use xlink:href="#15" y="23.881"/><use xlink:href="#16" y="26.052"/><use xlink:href="#17" y="28.223"/><use xlink:href="#18" y="30.394"/><use xlink:href="#19" y="32.565"/><use xlink:href="#20" y="34.736"/><use xlink:href="#21" y="36.907"/><use xlink:href="#22" y="39.078"/><use xlink:href="#23" y="41.249"/><use xlink:href="#24" y="43.42"/><use xlink:href="#25" y="45.591"/><use xlink:href="#23" y="47.762"/></svg><svg x="3560"><use xlink:href="#a"/><use xlink:href="#b" x="-.004" y="54.25"/><use xlink:href="#3"/><use xlink:href="#4" y="2.171"/><use xlink:href="#6" y="4.342"/><use xlink:href="#7" y="6.513"/><use xlink:href="#8" y="8.684"/><use xlink:href="#9" y="10.855"/><use xlink:href="#10" y="13.026"/><use xlink:href="#11" y="15.197"/><use xlink:href="#12" y="17.368"/><use xlink:href="#13" y="19.539"/><use xlink:href="#14" y="21.71"/><use xlink:href="#15" y="23.881"/><use xlink:href="#16" y="26.052"/><use xlink:href="#17" y="28.223"/><use xlink:href="#18" y="30.394"/><use xlink:href="#19" y="32.565"/><use xlink:href="#20" y="34.736"/><use xlink:href="#21" y="36.907"/><use xlink:href="#22" y="39.078"/><use xlink:href="#23" y="41.249"/><use xlink:href="#24" y="43.42"/><use xlink:href="#25" y="45.591"/><use xlink:href="#23" y="47.762"/><use xlink:href="#26" y="49.933"/><use xlink:href="#27" y="52.104"/></svg><svg x="3649"><use xlink:href="#a"/><use xlink:href="#b" x="-.004" y="56.421"/><use xlink:href="#3"/><use xlink:href="#4" y="2.171"/><use xlink:href="#6" y="4.342"/><use xlink:href="#7" y="6.513"/><use xlink:href="#8" y="8.684"/><use xlink:href="#9" y="10.855"/><use xlink:href="#10" y="13.026"/><use xlink:href="#11" y="15.197"/><use xlink:href="#12" y="17.368"/><use xlink:href="#13" y="19.539"/><use xlink:href="#14" y="21.71"/><use xlink:href="#15" y="23.881"/><use xlink:href="#16" y="26.052"/><use xlink:href="#17" y="28.223"/><use xlink:href="#18" y="30.394"/><use xlink:href="#19" y="32.565"/><use xlink:href="#20" y="34.736"/><use xlink:href="#21" y="36.907"/><use xlink:href="#22" y="39.078"/><use xlink:href="#23" y="41.249"/><use xlink:href="#24" y="43.42"/><use xlink:href="#25" y="45.591"/><use xlink:href="#23" y="47.762"/><use xlink:href="#26" y="49.933"/><use xlink:href="#27" y="52.104"/><use xlink:href="#26" y="54.275"/></svg><svg x="3738"><use xlink:href="#a"/><use xlink:href="#b" x="-.004" y="58.592"/><use xlink:href="#3"/><use xlink:href="#4" y="2.171"/><use xlink:href="#6" y="4.342"/><use xlink:href="#7" y="6.513"/><use xlink:href="#8" y="8.684"/><use xlink:href="#9" y="10.855"/><use xlink:href="#10" y="13.026"/><use xlink:href="#11" y="15.197"/><use xlink:href="#12" y="17.368"/><use xlink:href="#13" y="19.539"/><use xlink:href="#14" y="21.71"/><use xlink:href="#15" y="23.881"/><use xlink:href="#16" y="26.052"/><use xlink:href="#17" y="28.223"/><use xlink:href="#18" y="30.394"/><use xlink:href="#19" y="32.565"/><use xlink:href="#20" y="34.736"/><use xlink:href="#21" y="36.907"/><use xlink:href="#22" y="39.078"/><use xlink:href="#23" y="41.249"/><use xlink:href="#24" y="43.42"/><use xlink:href="#25" y="45.591"/><use xlink:href="#23" y="47.762"/><use xlink:href="#26" y="49.933"/><use xlink:href="#27" y="52.104"/><use xlink:href="#26" y="54.275"/><use xlink:href="#28" y="56.446"/></svg><svg x="3827"><use xlink:href="#a"/><use xlink:href="#b" x="41.996" y="58.592"/><use xlink:href="#3"/><use xlink:href="#4" y="2.171"/><use xlink:href="#6" y="4.342"/><use xlink:href="#7" y="6.513"/><use xlink:href="#8" y="8.684"/><use xlink:href="#9" y="10.855"/><use xlink:href="#10" y="13.026"/><use xlink:href="#11" y="15.197"/><use xlink:href="#12" y="17.368"/><use xlink:href="#13" y="19.539"/><use xlink:href="#14" y="21.71"/><use xlink:href="#15" y="23.881"/><use xlink:href="#16" y="26.052"/><use xlink:href="#17" y="28.223"/><use xlink:href="#18" y="30.394"/><use xlink:href="#19" y="32.565"/><use xlink:href="#20" y="34.736"/><use xlink:href="#21" y="36.907"/><use xlink:href="#22" y="39.078"/><use xlink:href="#23" y="41.249"/><use xlink:href="#24" y="43.42"/><use xlink:href="#25" y="45.591"/><use xlink:href="#23" y="47.762"/><use xlink:href="#26" y="49.933"/><use xlink:href="#27" y="52.104"/><use xlink:href="#26" y="54.275"/><use xlink:href="#28" y="56.446"/><use xlink:href="#1" y="58.617"/></svg><svg x="3916"><use xlink:href="#a"/><use xlink:href="#b" x="-.004" y="60.763"/><use xlink:href="#3"/><use xlink:href="#4" y="2.171"/><use xlink:href="#6" y="4.342"/><use xlink:href="#7" y="6.513"/><use xlink:href="#8" y="8.684"/><use xlink:href="#9" y="10.855"/><use xlink:href="#10" y="13.026"/><use xlink:href="#11" y="15.197"/><use xlink:href="#12" y="17.368"/><use xlink:href="#13" y="19.539"/><use xlink:href="#14" y="21.71"/><use xlink:href="#15" y="23.881"/><use xlink:href="#16" y="26.052"/><use xlink:href="#17" y="28.223"/><use xlink:href="#18" y="30.394"/><use xlink:href="#19" y="32.565"/><use xlink:href="#20" y="34.736"/><use xlink:href="#21" y="36.907"/><use xlink:href="#22" y="39.078"/><use xlink:href="#23" y="41.249"/><use xlink:href="#24" y="43.42"/><use xlink:href="#25" y="45.591"/><use xlink:href="#23" y="47.762"/><use xlink:href="#26" y="49.933"/><use xlink:href="#27" y="52.104"/><use xlink:href="#26" y="54.275"/><use xlink:href="#28" y="56.446"/><text y="60.287" class="f">ben@bouzin</text><text x="10.02" y="60.287" class="g">:</text><text x="11.022" y="60.287" class="h">~/src/rock/rocktest/scen-test</text><text x="40.08" y="60.287" class="g">$</text><text x="42.084" y="60.287" class="g">exit</text></svg></svg></g></g></svg></svg>